<?xml version="1.0" encoding="UTF-8"?><svg xmlns="http://www.w3.org/2000/svg" width="400" height="100" viewBox="0 0 400 100">  <rect width="400" height="100" rx="10" fill="#1e40af" />  <g transform="translate(18,16)">    <path d="M22 4c-2.5 0-5 1.2-6.5 3.3C13 11 12 16 12 22c0 6 1 11 3.5 14.7 2.4 3.6 6.1 5.3 9.6 5.3 3.6 0 7.3-1.8 9.7-5.4C41 33 42 28 42 22c0-6-1-11-3.5-14.6C36 4 33.5 4 31 4h-9z" fill="#fcd34d"/>    <text x="70" y="54" font-family="Segoe UI, Roboto, sans-serif" font-size="28" font-weight="700" fill="#ffffff">Horse Electricals</text>  </g></svg>